<svg xmlns="http://www.w3.org/2000/svg" xmlns:xlink="http://www.w3.org/1999/xlink" viewBox="0 0 17.37 24"><defs><style>.cls-1{fill:url(#linear-gradient);}.cls-2{fill:url(#linear-gradient-2);}.cls-3{fill:url(#linear-gradient-3);}.cls-4{opacity:0.5;fill:url(#linear-gradient-4);}.cls-5{fill:url(#linear-gradient-5);}</style><linearGradient id="linear-gradient" x1="4.02" y1="24" x2="4.02" y2="23.99" gradientUnits="userSpaceOnUse"><stop offset="0" stop-color="#fe985d"/><stop offset="1" stop-color="#fb3db2"/></linearGradient><linearGradient id="linear-gradient-2" x1="12.86" y1="25.56" x2="12.86" y2="9.74" xlink:href="#linear-gradient"/><linearGradient id="linear-gradient-3" x1="6.11" y1="24.33" x2="6.11" y2="11.1" gradientUnits="userSpaceOnUse"><stop offset="0" stop-color="#b554fb"/><stop offset="1" stop-color="#4a3dfb"/></linearGradient><linearGradient id="linear-gradient-4" x1="6.11" y1="24.33" x2="6.11" y2="11.09" xlink:href="#linear-gradient"/><linearGradient id="linear-gradient-5" x1="4.17" y1="26.07" x2="4.17" y2="-0.76" gradientUnits="userSpaceOnUse"><stop offset="0" stop-color="#b554fb"/><stop offset="1" stop-color="#5e2cfb"/></linearGradient></defs><title>icon</title><g id="Layer_2" data-name="Layer 2"><g id="Layer_1-2" data-name="Layer 1"><path class="cls-1" d="M3.87,24h0Z"/><path class="cls-2" d="M17.37,17.24A6.75,6.75,0,0,1,10.62,24H8.34V10.89a6.62,6.62,0,0,1,2.28-.4,6.76,6.76,0,0,1,6.75,6.75Z"/><path class="cls-3" d="M8.34,10.89V24H3.87V17.25A6.77,6.77,0,0,1,8.34,10.89Z"/><path class="cls-4" d="M8.34,10.89V24H3.87V17.24A6.76,6.76,0,0,1,8.34,10.89Z"/><path class="cls-5" d="M8.34,4.17v6.72a6.76,6.76,0,0,0-4.47,6.35V24A4.17,4.17,0,0,1,0,19.82V4.17a4.17,4.17,0,1,1,8.34,0Z"/></g></g></svg>