<svg width="183" height="32" viewBox="0 0 183 32" fill="none" xmlns="http://www.w3.org/2000/svg">
<path d="M40.3152 16.5091V31.5736H35.7936V30.1432C34.9815 31.2407 33.4743 31.9723 31.4879 31.9723C28.4443 31.9723 25.8506 29.803 25.8506 25.7534V16.5091H30.3649V25.0985C30.3649 26.9642 31.5391 27.8385 32.9841 27.8385C34.6413 27.8385 35.7863 26.8764 35.7863 24.7364V16.5091H40.3152Z" fill="#1F3048"/>
<path d="M43.1686 12.4741C43.1679 11.9369 43.3265 11.4116 43.6245 10.9647C43.9225 10.5178 44.3464 10.1693 44.8425 9.96339C45.3387 9.7575 45.8847 9.70343 46.4116 9.80805C46.9385 9.91267 47.4225 10.1713 47.8023 10.5511C48.1822 10.9309 48.4407 11.4149 48.5454 11.9418C48.65 12.4687 48.5959 13.0148 48.39 13.5109C48.1841 14.007 47.8356 14.4309 47.3887 14.7289C46.9418 15.0269 46.4165 15.1856 45.8793 15.1848C45.1627 15.1772 44.4777 14.8892 43.971 14.3825C43.4642 13.8757 43.1762 13.1907 43.1686 12.4741ZM43.6222 16.4981H48.1401V31.5736H43.6295L43.6222 16.4981Z" fill="#1F3048"/>
<path d="M51.4617 9.58047H55.9722V31.5736H51.4617V9.58047Z" fill="#1F3048"/>
<path d="M74.7534 10.484V31.5735H70.2392V30.1432C69.2442 31.2882 67.7699 31.9723 65.7506 31.9723C61.7961 31.9979 58.533 28.5336 58.533 24.0413C58.533 19.5491 61.7888 16.0884 65.7359 16.0884C67.7553 16.0884 69.2295 16.7798 70.2246 17.9175V10.484H74.7534ZM70.2392 24.0413C70.2392 21.7842 68.732 20.3831 66.6542 20.3831C64.5763 20.3831 63.0691 21.7988 63.0691 24.0413C63.0691 26.2838 64.5763 27.7178 66.6542 27.7178C68.732 27.7178 70.2392 26.3021 70.2392 24.0413Z" fill="#1F3048"/>
<path d="M83.7746 20.8477V26.1814C83.7746 27.4764 84.8903 27.5971 86.8767 27.4764V31.5736C80.9724 32.1772 79.2567 30.3993 79.2567 26.1814V20.8477H76.8606V16.5091H79.2713V13.6484L83.7746 12.2912V16.5091H86.8767V20.8477H83.7746Z" fill="#1F3048"/>
<path d="M103.917 22.3256V31.5735H99.3951V22.9878C99.3951 21.1184 98.2208 20.2478 96.7758 20.2478C95.1186 20.2478 93.9736 21.2099 93.9736 23.3499V31.5735H89.4521V10.484H93.9736V17.9248C94.7857 16.8274 96.2929 16.0957 98.283 16.0957C101.334 16.0884 103.917 18.2577 103.917 22.3256Z" fill="#1F3048"/>
<path d="M114.672 27.9483C115.206 27.9639 115.739 27.8705 116.236 27.6736C116.734 27.4767 117.186 27.1806 117.565 26.8033L121.18 28.8811C119.716 30.9297 117.474 31.987 114.613 31.987C109.459 31.987 106.265 28.5226 106.265 24.0304C106.265 19.5381 109.521 16.0775 114.28 16.0775C118.67 16.0775 121.933 19.4832 121.933 24.0304C121.938 24.6447 121.878 25.2577 121.754 25.8595H111.057C111.628 27.4179 113.015 27.9483 114.672 27.9483ZM117.43 22.461C116.947 20.7124 115.601 20.0795 114.236 20.0795C112.517 20.0795 111.372 20.9246 110.944 22.461H117.43Z" fill="#1F3048"/>
<path d="M129.765 20.8477V26.1814C129.765 27.4764 130.863 27.5971 132.871 27.4764V31.5736C126.963 32.1772 125.248 30.3993 125.248 26.1814V20.8477H122.837V16.5091H125.248V13.6484L129.765 12.2912V16.5091H132.871V20.8477H129.765Z" fill="#1F3048"/>
<path d="M142.781 27.9483C143.316 27.9639 143.848 27.8705 144.346 27.6736C144.843 27.4767 145.296 27.1806 145.675 26.8033L149.289 28.8811C147.826 30.9297 145.583 31.987 142.723 31.987C137.568 31.987 134.375 28.5226 134.375 24.0304C134.375 19.5381 137.631 16.0775 142.39 16.0775C146.78 16.0775 150.043 19.4832 150.043 24.0304C150.047 24.6447 149.987 25.2577 149.864 25.8595H139.167C139.745 27.4179 141.124 27.9483 142.781 27.9483ZM145.554 22.461C145.071 20.7124 143.725 20.0795 142.361 20.0795C140.645 20.0795 139.5 20.9246 139.068 22.461H145.554Z" fill="#1F3048"/>
<path d="M151.7 24.0413C151.703 22.3009 152.275 20.6092 153.33 19.2247C154.384 17.8403 155.864 16.8393 157.541 16.3748C159.218 15.9102 161.001 16.0077 162.618 16.6523C164.235 17.2968 165.596 18.453 166.494 19.9442L162.546 22.2342C162.272 21.7019 161.85 21.2598 161.331 20.9608C160.812 20.6617 160.218 20.5184 159.62 20.5478C157.663 20.5478 156.214 21.9635 156.214 24.0413C156.214 26.1192 157.677 27.5386 159.62 27.5386C160.948 27.5386 162.06 26.9057 162.546 25.8521L166.494 28.1093C165.813 29.309 164.821 30.3032 163.623 30.9874C162.425 31.6717 161.065 32.0207 159.686 31.9979C158.633 32.0223 157.586 31.8334 156.608 31.4425C155.63 31.0517 154.741 30.467 153.995 29.7236C153.249 28.9803 152.661 28.0937 152.267 27.1171C151.872 26.1406 151.679 25.0943 151.7 24.0413Z" fill="#1F3048"/>
<path d="M182.765 22.3256V31.5735H178.244V22.9878C178.244 21.1184 177.07 20.2478 175.625 20.2478C173.967 20.2478 172.822 21.2099 172.822 23.3499V31.5735H168.301V10.484H172.822V17.9248C173.634 16.8274 175.142 16.0957 177.128 16.0957C180.172 16.0884 182.765 18.2577 182.765 22.3256Z" fill="#1F3048"/>
<path d="M23.0485 23.0317C23.049 24.2077 22.8178 25.3723 22.3682 26.459C21.9186 27.5457 21.2594 28.5332 20.4281 29.3651C19.5969 30.197 18.6099 30.857 17.5236 31.3075C16.4373 31.758 15.2729 31.9901 14.0969 31.9906H11.0752V14.5959C12.4272 14.1128 13.8755 13.9618 15.2981 14.1554C16.7206 14.3491 18.0758 14.8818 19.2495 15.7087C20.4232 16.5356 21.3809 17.6325 22.042 18.9069C22.7032 20.1813 23.0483 21.596 23.0485 23.0317Z" fill="url(#paint0_linear)"/>
<path d="M11.0751 14.6032V31.9979H5.54028C5.40493 31.9979 5.26957 31.9979 5.13788 31.9979V23.039C5.13856 21.1927 5.7092 19.3916 6.77186 17.8817C7.83451 16.3719 9.33736 15.2269 11.0751 14.6032Z" fill="url(#paint1_linear)"/>
<path opacity="0.5" d="M11.0751 14.5959V31.9906H5.54028C5.40493 31.9906 5.26957 31.9906 5.13788 31.9906V23.0317C5.13856 21.1853 5.7092 19.3843 6.77186 17.8744C7.83451 16.3646 9.33736 15.2196 11.0751 14.5959Z" fill="url(#paint2_linear)"/>
<path d="M11.0752 5.68084V14.5959C9.33469 15.2172 7.82869 16.3611 6.76327 17.8712C5.69785 19.3812 5.12507 21.1836 5.12331 23.0317V31.9723C3.73163 31.8672 2.43093 31.2406 1.48137 30.2178C0.531808 29.195 0.00339819 27.8514 0.00182922 26.4557V5.68084C-0.0171696 4.94178 0.11199 4.20639 0.381692 3.51803C0.651395 2.82968 1.05618 2.20228 1.57219 1.67284C2.0882 1.1434 2.70498 0.722621 3.38618 0.435318C4.06738 0.148015 4.7992 0 5.53851 0C6.27782 0 7.00964 0.148015 7.69084 0.435318C8.37204 0.722621 8.98882 1.1434 9.50483 1.67284C10.0208 2.20228 10.4256 2.82968 10.6953 3.51803C10.965 4.20639 11.0942 4.94178 11.0752 5.68084Z" fill="url(#paint3_linear)"/>
<defs>
<linearGradient id="paint0_linear" x1="569.509" y1="1675.52" x2="569.509" y2="647.083" gradientUnits="userSpaceOnUse">
<stop stop-color="#FE985D"/>
<stop offset="1" stop-color="#FB3DB2"/>
</linearGradient>
<linearGradient id="paint1_linear" x1="8.10468" y1="32.4369" x2="8.10468" y2="14.8702" gradientUnits="userSpaceOnUse">
<stop stop-color="#B554FB"/>
<stop offset="1" stop-color="#4A3DFB"/>
</linearGradient>
<linearGradient id="paint2_linear" x1="136.648" y1="1549.68" x2="136.648" y2="714.386" gradientUnits="userSpaceOnUse">
<stop stop-color="#FE985D"/>
<stop offset="1" stop-color="#FB3DB2"/>
</linearGradient>
<linearGradient id="paint3_linear" x1="5.53668" y1="34.7416" x2="5.53668" y2="-0.856359" gradientUnits="userSpaceOnUse">
<stop stop-color="#B554FB"/>
<stop offset="1" stop-color="#5E2CFB"/>
</linearGradient>
</defs>
</svg>
